<?xml version="1.0" encoding="UTF-8" standalone="no"?>
<!-- Created with Inkscape (http://www.inkscape.org/) -->

<svg
   xmlns:dc="http://purl.org/dc/elements/1.1/"
   xmlns:cc="http://creativecommons.org/ns#"
   xmlns:rdf="http://www.w3.org/1999/02/22-rdf-syntax-ns#"
   xmlns:svg="http://www.w3.org/2000/svg"
   xmlns="http://www.w3.org/2000/svg"
   xmlns:sodipodi="http://sodipodi.sourceforge.net/DTD/sodipodi-0.dtd"
   xmlns:inkscape="http://www.inkscape.org/namespaces/inkscape"
   width="25"
   height="25"
   id="svg3873"
   version="1.1"
   inkscape:version="0.48.2 r9819"
   sodipodi:docname="earth_hi.svg">
  <defs
     id="defs3875" />
  <sodipodi:namedview
     id="base"
     pagecolor="#ff62ff"
     bordercolor="#666666"
     borderopacity="1.0"
     inkscape:pageopacity="0.22352941"
     inkscape:pageshadow="2"
     inkscape:zoom="22.627417"
     inkscape:cx="11.200147"
     inkscape:cy="13.462513"
     inkscape:document-units="px"
     inkscape:current-layer="layer1"
     showgrid="true"
     fit-margin-top="0"
     fit-margin-left="0"
     fit-margin-right="0"
     fit-margin-bottom="0"
     inkscape:window-width="1440"
     inkscape:window-height="852"
     inkscape:window-x="-2"
     inkscape:window-y="0"
     inkscape:window-maximized="0">
    <inkscape:grid
       type="xygrid"
       id="grid7005"
       empspacing="5"
       visible="true"
       enabled="true"
       snapvisiblegridlinesonly="true" />
  </sodipodi:namedview>
  <metadata
     id="metadata3878">
    <rdf:RDF>
      <cc:Work
         rdf:about="">
        <dc:format>image/svg+xml</dc:format>
        <dc:type
           rdf:resource="http://purl.org/dc/dcmitype/StillImage" />
        <dc:title></dc:title>
      </cc:Work>
    </rdf:RDF>
  </metadata>
  <g
     inkscape:label="Layer 1"
     inkscape:groupmode="layer"
     id="layer1"
     transform="translate(-93.916536,-110.58403)">
    <path
       style="fill:none;stroke:#ffffff;stroke-width:0.99999994;stroke-miterlimit:4"
       d="m 99.916536,123.08403 13.000004,0"
       id="line3677"
       inkscape:connector-curvature="0" />
    <path
       style="font-size:medium;font-style:normal;font-variant:normal;font-weight:normal;font-stretch:normal;text-indent:0;text-align:start;text-decoration:none;line-height:normal;letter-spacing:normal;word-spacing:normal;text-transform:none;direction:ltr;block-progression:tb;writing-mode:lr-tb;text-anchor:start;baseline-shift:baseline;color:#000000;fill:#ffffff;fill-opacity:1;stroke:none;stroke-width:1;marker:none;visibility:visible;display:inline;overflow:visible;enable-background:accumulate;font-family:Sans;-inkscape-font-specification:Sans"
       d="M 12.5 0.4375 C 6.0263223 0.4375 0.7369524 5.5902921 0.46875 12 L 5.96875 12 C 6.0452664 9.0945613 6.7910981 6.4781813 7.9375 4.59375 C 9.14936 2.60172 10.7833 1.4375 12.5 1.4375 C 14.2167 1.4375 15.81939 2.60172 17.03125 4.59375 C 18.177652 6.4781813 18.923484 9.0945613 19 12 L 24.5 12 C 24.23332 5.5902921 18.97368 0.4375 12.5 0.4375 z M 0.46875 13 C 0.7369524 19.408186 6.0263223 24.53125 12.5 24.53125 C 18.97368 24.53125 24.23332 19.408186 24.5 13 L 19 13 C 18.923484 15.902418 18.177652 18.490569 17.03125 20.375 C 15.970872 22.118026 14.629638 23.249926 13.15625 23.5 C 12.945766 23.53572 12.714588 23.53125 12.5 23.53125 C 12.285412 23.53125 12.086339 23.53575 11.875 23.5 C 10.39563 23.249926 8.9978775 22.118026 7.9375 20.375 C 6.7910981 18.490569 6.0452664 15.902418 5.96875 13 L 0.46875 13 z "
       transform="translate(93.916536,110.58403)"
       id="circle3675" />
    <line
       style="fill:none;stroke:#ffffff;stroke-width:1;stroke-miterlimit:4;stroke-dasharray:none"
       x1="106.41554"
       y1="111.70805"
       x2="106.41554"
       y2="134.45903"
       id="line3679" />
  </g>
</svg>
