<?xml version="1.0" encoding="UTF-8" standalone="no"?>
<!-- Generator: Adobe Illustrator 14.0.0, SVG Export Plug-In . SVG Version: 6.00 Build 43363)  -->

<svg
   xmlns:dc="http://purl.org/dc/elements/1.1/"
   xmlns:cc="http://creativecommons.org/ns#"
   xmlns:rdf="http://www.w3.org/1999/02/22-rdf-syntax-ns#"
   xmlns:svg="http://www.w3.org/2000/svg"
   xmlns="http://www.w3.org/2000/svg"
   xmlns:sodipodi="http://sodipodi.sourceforge.net/DTD/sodipodi-0.dtd"
   xmlns:inkscape="http://www.inkscape.org/namespaces/inkscape"
   version="1.1"
   id="svg3873"
   sodipodi:docname="earth_hi.svg"
   inkscape:version="0.48.2 r9819"
   x="0px"
   y="0px"
   width="64"
   height="45"
   viewBox="0 0 64 45"
   enable-background="new 0 0 64 50"
   xml:space="preserve"><metadata
   id="metadata3583"><rdf:RDF><cc:Work
       rdf:about=""><dc:format>image/svg+xml</dc:format><dc:type
         rdf:resource="http://purl.org/dc/dcmitype/StillImage" /></cc:Work></rdf:RDF></metadata><defs
   id="defs3581" />
<sodipodi:namedview
   id="base"
   inkscape:pageopacity="0.22352941"
   bordercolor="#666666"
   fit-margin-left="0"
   fit-margin-top="0"
   borderopacity="1.0"
   inkscape:cy="29.712513"
   inkscape:window-y="0"
   inkscape:window-height="852"
   inkscape:pageshadow="2"
   inkscape:document-units="px"
   pagecolor="#ff62ff"
   fit-margin-bottom="0"
   inkscape:current-layer="g5"
   fit-margin-right="0"
   showgrid="true"
   inkscape:window-width="1440"
   inkscape:window-x="-318"
   inkscape:cx="31.843545"
   inkscape:zoom="8"
   inkscape:window-maximized="0">
	<inkscape:grid
   visible="true"
   enabled="true"
   id="grid7005"
   type="xygrid"
   empspacing="5"
   snapvisiblegridlinesonly="true">
		</inkscape:grid>
</sodipodi:namedview>
<g
   id="layer1"
   transform="translate(-93.916536,-90.58403)"
   inkscape:groupmode="layer"
   inkscape:label="Layer 1">
	<g
   id="g5"
   transform="translate(93.917536,110.60103)">
		<path
   id="path7"
   inkscape:connector-curvature="0"
   d="m 35.997,15.983 c 3.44,-0.425 6.176,-5.158 6.325,-11.019 h -6.325 v 11.019 z"
   style="fill:#ffffff" />
		<path
   id="path9"
   inkscape:connector-curvature="0"
   d="M 42.322,3.964 C 42.173,-1.895 39.437,-6.628 35.997,-7.052 V 3.964 h 6.325 z"
   style="fill:#ffffff" />
		<path
   id="path11"
   inkscape:connector-curvature="0"
   d="m 34.997,-7.052 c -3.437,0.425 -6.17,5.158 -6.319,11.016 h 6.319 V -7.052 z"
   style="fill:#ffffff" />
		<path
   id="path13"
   inkscape:connector-curvature="0"
   d="m 28.678,4.964 c 0.149,5.856 2.883,10.594 6.319,11.019 V 4.964 h -6.319 z"
   style="fill:#ffffff" />
		<path
   id="path15"
   inkscape:connector-curvature="0"
   d="m 43.325,3.964 h 3.707 c -0.206,-4.782 -3.323,-8.81 -7.626,-10.363 2.262,2.092 3.811,5.931 3.919,10.363 z"
   style="fill:#ffffff" />
		<path
   id="path17"
   inkscape:connector-curvature="0"
   d="M 39.407,15.33 C 43.71,13.775 46.826,9.746 47.032,4.965 h -3.707 c -0.108,4.434 -1.657,8.272 -3.918,10.365 z"
   style="fill:#ffffff" />
		<path
   id="path19"
   inkscape:connector-curvature="0"
   d="m 27.676,4.964 h -3.712 c 0.206,4.782 3.324,8.813 7.628,10.367 -2.26,-2.093 -3.807,-5.932 -3.916,-10.367 z"
   style="fill:#ffffff" />
		<path
   id="path21"
   inkscape:connector-curvature="0"
   d="m 23.964,3.964 h 3.712 c 0.108,-4.432 1.656,-8.273 3.916,-10.365 -4.304,1.553 -7.422,5.582 -7.628,10.365 z"
   style="fill:#ffffff" />
	</g>
</g>
</svg>