<?xml version="1.0" encoding="UTF-8" standalone="no"?>
<!-- Created with Inkscape (http://www.inkscape.org/) -->

<svg
   xmlns:dc="http://purl.org/dc/elements/1.1/"
   xmlns:cc="http://creativecommons.org/ns#"
   xmlns:rdf="http://www.w3.org/1999/02/22-rdf-syntax-ns#"
   xmlns:svg="http://www.w3.org/2000/svg"
   xmlns="http://www.w3.org/2000/svg"
   xmlns:sodipodi="http://sodipodi.sourceforge.net/DTD/sodipodi-0.dtd"
   xmlns:inkscape="http://www.inkscape.org/namespaces/inkscape"
   width="25"
   height="25"
   id="svg3873"
   version="1.1"
   inkscape:version="0.48.2 r9819"
   sodipodi:docname="earth_hi.svg">
  <defs
     id="defs3875" />
  <sodipodi:namedview
     id="base"
     pagecolor="#ff62ff"
     bordercolor="#666666"
     borderopacity="1.0"
     inkscape:pageopacity="0.22352941"
     inkscape:pageshadow="2"
     inkscape:zoom="16"
     inkscape:cx="19.343545"
     inkscape:cy="14.712513"
     inkscape:document-units="px"
     inkscape:current-layer="g5"
     showgrid="true"
     fit-margin-top="0"
     fit-margin-left="0"
     fit-margin-right="0"
     fit-margin-bottom="0"
     inkscape:window-width="1440"
     inkscape:window-height="852"
     inkscape:window-x="5"
     inkscape:window-y="40"
     inkscape:window-maximized="0">
    <inkscape:grid
       type="xygrid"
       id="grid7005"
       empspacing="5"
       visible="true"
       enabled="true"
       snapvisiblegridlinesonly="true" />
  </sodipodi:namedview>
  <metadata
     id="metadata3878">
    <rdf:RDF>
      <cc:Work
         rdf:about="">
        <dc:format>image/svg+xml</dc:format>
        <dc:type
           rdf:resource="http://purl.org/dc/dcmitype/StillImage" />
        <dc:title />
      </cc:Work>
    </rdf:RDF>
  </metadata>
  <g
     inkscape:label="Layer 1"
     inkscape:groupmode="layer"
     id="layer1"
     transform="translate(-93.916536,-110.58403)">
    <g
       transform="translate(93.917536,110.60103)"
       id="g5">
      <path
         style="fill:#ffffff"
         inkscape:connector-curvature="0"
         d="m 12.999,24.001 c 3.44,-0.424 6.176,-5.159 6.325,-11.018 h -6.325 v 11.018 z"
         id="path7" />
      <path
         style="fill:#ffffff"
         inkscape:connector-curvature="0"
         d="M 19.324,11.983 C 19.175,6.124 16.439,1.391 12.999,0.967 v 11.016 h 6.325 z"
         id="path9" />
      <path
         style="fill:#ffffff"
         inkscape:connector-curvature="0"
         d="M 11.999,0.968 C 8.562,1.392 5.829,6.125 5.68,11.983 h 6.319 V 0.968 z"
         id="path11" />
      <path
         style="fill:#ffffff"
         inkscape:connector-curvature="0"
         d="m 5.68,12.983 c 0.149,5.858 2.882,10.594 6.319,11.018 V 12.983 H 5.68 z"
         id="path13" />
      <path
         style="fill:#ffffff"
         inkscape:connector-curvature="0"
         d="m 20.327,11.983 h 3.707 C 23.828,7.201 20.711,3.172 16.408,1.619 c 2.262,2.093 3.81,5.932 3.919,10.364 z"
         id="path15" />
      <path
         style="fill:#ffffff"
         inkscape:connector-curvature="0"
         d="m 16.409,23.349 c 4.303,-1.554 7.419,-5.584 7.625,-10.365 h -3.707 c -0.109,4.432 -1.657,8.272 -3.918,10.365 z"
         id="path17" />
      <path
         style="fill:#ffffff"
         inkscape:connector-curvature="0"
         d="M 4.677,12.983 H 0.966 C 1.172,17.765 4.29,21.797 8.594,23.35 6.334,21.258 4.787,17.417 4.677,12.983 z"
         id="path19" />
      <path
         style="fill:#ffffff"
         inkscape:connector-curvature="0"
         d="M 0.966,11.983 H 4.677 C 4.786,7.551 6.334,3.71 8.593,1.618 4.29,3.171 1.172,7.2 0.966,11.983 z"
         id="path21" />
    </g>
  </g>
</svg>
