<?xml version="1.0" encoding="UTF-8" standalone="no"?>
<!-- Created with Inkscape (http://www.inkscape.org/) -->

<svg
   xmlns:dc="http://purl.org/dc/elements/1.1/"
   xmlns:cc="http://creativecommons.org/ns#"
   xmlns:rdf="http://www.w3.org/1999/02/22-rdf-syntax-ns#"
   xmlns:svg="http://www.w3.org/2000/svg"
   xmlns="http://www.w3.org/2000/svg"
   xmlns:sodipodi="http://sodipodi.sourceforge.net/DTD/sodipodi-0.dtd"
   xmlns:inkscape="http://www.inkscape.org/namespaces/inkscape"
   width="35"
   height="25"
   id="svg3873"
   version="1.1"
   inkscape:version="0.48.2 r9819"
   sodipodi:docname="photos.svg">
  <defs
     id="defs3875" />
  <sodipodi:namedview
     id="base"
     pagecolor="#ff62ff"
     bordercolor="#666666"
     borderopacity="1.0"
     inkscape:pageopacity="0.22352941"
     inkscape:pageshadow="2"
     inkscape:zoom="11.313709"
     inkscape:cx="4.4321193"
     inkscape:cy="2.0194063"
     inkscape:document-units="px"
     inkscape:current-layer="layer1"
     showgrid="true"
     fit-margin-top="0"
     fit-margin-left="0"
     fit-margin-right="0"
     fit-margin-bottom="0"
     inkscape:window-width="1440"
     inkscape:window-height="852"
     inkscape:window-x="41"
     inkscape:window-y="5"
     inkscape:window-maximized="0"
     inkscape:snap-global="true">
    <inkscape:grid
       type="xygrid"
       id="grid4567"
       empspacing="5"
       visible="true"
       enabled="true"
       snapvisiblegridlinesonly="true" />
  </sodipodi:namedview>
  <metadata
     id="metadata3878">
    <rdf:RDF>
      <cc:Work
         rdf:about="">
        <dc:format>image/svg+xml</dc:format>
        <dc:type
           rdf:resource="http://purl.org/dc/dcmitype/StillImage" />
        <dc:title></dc:title>
      </cc:Work>
    </rdf:RDF>
  </metadata>
  <g
     inkscape:label="Layer 1"
     inkscape:groupmode="layer"
     id="layer1"
     transform="translate(-93.916536,-110.58403)">
    <g
       transform="translate(-86.149464,-653.23297)"
       id="g3697">
      <path
         style="fill:none;stroke:#ffffff;stroke-width:0.5"
         inkscape:connector-curvature="0"
         d="m 206.453,774.021 c -0.715,0 -1.401,0.108 -2.051,0.31 -1.498,-2.626 -4.316,-4.397 -7.556,-4.397 -3.942,0 -7.268,2.623 -8.336,6.218 -0.464,-0.114 -0.946,-0.182 -1.444,-0.182 -3.272,0 -5.925,2.65 -5.925,5.923 0,3.271 2.652,5.924 5.925,5.924 h 19.385 l 0,0 h 0.002 c 3.808,0 6.896,-3.089 6.896,-6.896 0.001,-3.812 -3.088,-6.9 -6.896,-6.9 z"
         id="path3699" />
      <path
         style="fill:none;stroke:#ffffff;stroke-width:0.5"
         inkscape:connector-curvature="0"
         d="m 183.214,777.475 c 1.06,-0.992 2.479,-1.604 4.047,-1.604 0.498,0 0.98,0.067 1.444,0.182 0.796,-2.677 2.844,-4.813 5.465,-5.73 -0.685,-3.148 -3.484,-5.508 -6.839,-5.508 -3.87,0 -7.005,3.135 -7.005,7.003 0,2.327 1.14,4.383 2.888,5.657 z"
         id="path3701" />
      <circle
         style="fill:#ffffff"
         sodipodi:ry="0.713"
         sodipodi:rx="0.713"
         sodipodi:cy="778.18701"
         sodipodi:cx="197.472"
         d="m 198.185,778.18701 c 0,0.39378 -0.31922,0.713 -0.713,0.713 -0.39378,0 -0.713,-0.31922 -0.713,-0.713 0,-0.39378 0.31922,-0.713 0.713,-0.713 0.39378,0 0.713,0.31922 0.713,0.713 z"
         cx="197.472"
         cy="778.18701"
         r="0.713"
         id="circle3703" />
      <circle
         style="fill:#ffffff"
         sodipodi:ry="0.71200001"
         sodipodi:rx="0.71200001"
         sodipodi:cy="780.77399"
         sodipodi:cx="194.882"
         d="m 195.594,780.77399 c 0,0.39322 -0.31877,0.712 -0.712,0.712 -0.39322,0 -0.712,-0.31878 -0.712,-0.712 0,-0.39323 0.31878,-0.712 0.712,-0.712 0.39323,0 0.712,0.31877 0.712,0.712 z"
         cx="194.882"
         cy="780.77399"
         r="0.71200001"
         id="circle3705" />
      <path
         style="fill:#ffffff"
         inkscape:connector-curvature="0"
         d="m 192.75,783.619 c 0,0.396 -0.318,0.713 -0.713,0.713 -0.392,0 -0.711,-0.316 -0.711,-0.713 0,-0.392 0.319,-0.711 0.711,-0.711 0.395,0 0.713,0.32 0.713,0.711 z"
         id="path3707" />
      <circle
         style="fill:#ffffff"
         sodipodi:ry="0.71200001"
         sodipodi:rx="0.71200001"
         sodipodi:cy="778.18701"
         sodipodi:cx="202.125"
         d="m 202.837,778.18701 c 0,0.39323 -0.31877,0.712 -0.712,0.712 -0.39323,0 -0.712,-0.31877 -0.712,-0.712 0,-0.39323 0.31877,-0.712 0.712,-0.712 0.39323,0 0.712,0.31877 0.712,0.712 z"
         cx="202.125"
         cy="778.18701"
         r="0.71200001"
         id="circle3709" />
      <circle
         style="fill:#ffffff"
         sodipodi:ry="0.71200001"
         sodipodi:rx="0.71200001"
         sodipodi:cy="780.77399"
         sodipodi:cx="199.535"
         d="m 200.247,780.77399 c 0,0.39322 -0.31877,0.712 -0.712,0.712 -0.39322,0 -0.712,-0.31878 -0.712,-0.712 0,-0.39323 0.31878,-0.712 0.712,-0.712 0.39323,0 0.712,0.31877 0.712,0.712 z"
         cx="199.535"
         cy="780.77399"
         r="0.71200001"
         id="circle3711" />
      <path
         style="fill:#ffffff"
         inkscape:connector-curvature="0"
         d="m 197.404,783.619 c 0,0.396 -0.319,0.713 -0.713,0.713 -0.393,0 -0.712,-0.316 -0.712,-0.713 0,-0.392 0.319,-0.711 0.712,-0.711 0.394,0 0.713,0.32 0.713,0.711 z"
         id="path3713" />
    </g>
  </g>
</svg>
