<?xml version="1.0" encoding="UTF-8" standalone="no"?>
<!-- Generator: Adobe Illustrator 14.0.0, SVG Export Plug-In . SVG Version: 6.00 Build 43363)  -->

<svg
   xmlns:dc="http://purl.org/dc/elements/1.1/"
   xmlns:cc="http://creativecommons.org/ns#"
   xmlns:rdf="http://www.w3.org/1999/02/22-rdf-syntax-ns#"
   xmlns:svg="http://www.w3.org/2000/svg"
   xmlns="http://www.w3.org/2000/svg"
   xmlns:sodipodi="http://sodipodi.sourceforge.net/DTD/sodipodi-0.dtd"
   xmlns:inkscape="http://www.inkscape.org/namespaces/inkscape"
   version="1.1"
   id="svg3873"
   sodipodi:docname="map_hi.svg"
   inkscape:version="0.48.2 r9819"
   x="0px"
   y="0px"
   width="64"
   height="45"
   viewBox="-7 0 64 45"
   enable-background="new -7 0 64 50"
   xml:space="preserve"><metadata
   id="metadata3617"><rdf:RDF><cc:Work
       rdf:about=""><dc:format>image/svg+xml</dc:format><dc:type
         rdf:resource="http://purl.org/dc/dcmitype/StillImage" /></cc:Work></rdf:RDF></metadata><defs
   id="defs3615" />
<sodipodi:namedview
   id="base"
   inkscape:pageopacity="0.22352941"
   bordercolor="#666666"
   fit-margin-left="0"
   fit-margin-top="0"
   borderopacity="1.0"
   inkscape:cy="16.83973"
   inkscape:window-y="0"
   inkscape:window-height="852"
   inkscape:pageshadow="2"
   inkscape:document-units="px"
   pagecolor="#ff62ff"
   fit-margin-bottom="0"
   inkscape:current-layer="g3697"
   fit-margin-right="0"
   showgrid="true"
   inkscape:window-width="1440"
   inkscape:window-x="106"
   inkscape:cx="6.8276542"
   inkscape:zoom="8.0000004"
   inkscape:window-maximized="0"
   inkscape:snap-global="true">
	<inkscape:grid
   visible="true"
   enabled="true"
   id="grid4567"
   type="xygrid"
   empspacing="5"
   snapvisiblegridlinesonly="true">
		</inkscape:grid>
</sodipodi:namedview>
<g
   id="layer1"
   transform="translate(-93.916536,-90.58403)"
   inkscape:groupmode="layer"
   inkscape:label="Layer 1">
	<g
   id="g3697"
   transform="translate(-86.149464,-653.23297)">
		<path
   id="path3699"
   inkscape:connector-curvature="0"
   d="m 219.822,766.522 c -0.715,0 -1.4,0.107 -2.051,0.309 -1.498,-2.625 -4.316,-4.396 -7.557,-4.396 -3.941,0 -7.268,2.623 -8.335,6.219 -0.464,-0.115 -0.946,-0.184 -1.444,-0.184 -3.272,0 -5.925,2.65 -5.925,5.923 0,3.271 2.652,5.924 5.925,5.924 h 19.385 l 0,0 h 0.002 c 3.809,0 6.896,-3.088 6.896,-6.896 0,-3.812 -3.088,-6.899 -6.896,-6.899 z"
   style="fill:none;stroke:#ffffff" />
		<path
   id="path3701"
   inkscape:connector-curvature="0"
   sodipodi:nodetypes="cssccccc"
   d="m 207.539,762.822 c -0.685,-3.148 -3.484,-5.507 -6.839,-5.507 -3.87,0 -7.005,3.134 -7.005,7.003 0,2.326 1.14,4.383 2.888,5.656 l 2.612,-2.158 h 2 l 3,-4 3.344,-0.994 z"
   style="fill:#ffffff;stroke:#ffffff" />
		
			<circle
   id="circle3703"
   sodipodi:rx="0.713"
   sodipodi:cy="765.18799"
   sodipodi:cx="210.841"
   sodipodi:ry="0.713"
   cx="210.841"
   cy="765.18799"
   r="0.713"
   d="m 211.554,765.18799 c 0,0.39378 -0.31922,0.713 -0.713,0.713 -0.39378,0 -0.713,-0.31922 -0.713,-0.713 0,-0.39378 0.31922,-0.713 0.713,-0.713 0.39378,0 0.713,0.31922 0.713,0.713 z"
   style="fill:#ffffff"
   transform="translate(0,4.999)">
		</circle>
		
			<circle
   id="circle3705"
   sodipodi:rx="0.71200001"
   sodipodi:cy="767.77502"
   sodipodi:cx="208.252"
   sodipodi:ry="0.71200001"
   cx="208.252"
   cy="767.77502"
   r="0.71200001"
   d="m 208.964,767.77502 c 0,0.39323 -0.31877,0.712 -0.712,0.712 -0.39323,0 -0.712,-0.31877 -0.712,-0.712 0,-0.39322 0.31877,-0.712 0.712,-0.712 0.39323,0 0.712,0.31878 0.712,0.712 z"
   style="fill:#ffffff"
   transform="translate(0,4.999)">
		</circle>
		<path
   id="path3707"
   inkscape:connector-curvature="0"
   d="m 206.119,775.619 c 0,0.396 -0.318,0.713 -0.713,0.713 -0.392,0 -0.711,-0.316 -0.711,-0.713 0,-0.393 0.319,-0.711 0.711,-0.711 0.394,0 0.713,0.32 0.713,0.711 z"
   style="fill:#ffffff" />
		
			<circle
   id="circle3709"
   sodipodi:rx="0.71200001"
   sodipodi:cy="765.18701"
   sodipodi:cx="215.494"
   sodipodi:ry="0.71200001"
   cx="215.494"
   cy="765.18701"
   r="0.71200001"
   d="m 216.206,765.18701 c 0,0.39323 -0.31877,0.712 -0.712,0.712 -0.39322,0 -0.712,-0.31877 -0.712,-0.712 0,-0.39323 0.31878,-0.712 0.712,-0.712 0.39323,0 0.712,0.31877 0.712,0.712 z"
   style="fill:#ffffff"
   transform="translate(0,4.999)">
		</circle>
		
			<circle
   id="circle3711"
   sodipodi:rx="0.71200001"
   sodipodi:cy="767.77502"
   sodipodi:cx="212.90401"
   sodipodi:ry="0.71200001"
   cx="212.90401"
   cy="767.77502"
   r="0.71200001"
   d="m 213.61601,767.77502 c 0,0.39323 -0.31878,0.712 -0.712,0.712 -0.39323,0 -0.712,-0.31877 -0.712,-0.712 0,-0.39322 0.31877,-0.712 0.712,-0.712 0.39322,0 0.712,0.31878 0.712,0.712 z"
   style="fill:#ffffff"
   transform="translate(0,4.999)">
		</circle>
		<path
   id="path3713"
   inkscape:connector-curvature="0"
   d="m 210.773,775.619 c 0,0.396 -0.319,0.713 -0.713,0.713 -0.393,0 -0.713,-0.316 -0.713,-0.713 0,-0.393 0.32,-0.711 0.713,-0.711 0.394,0 0.713,0.32 0.713,0.711 z"
   style="fill:#ffffff" />
	</g>
</g>
</svg>