<?xml version="1.0" encoding="UTF-8" standalone="no"?>
<!-- Created with Inkscape (http://www.inkscape.org/) -->

<svg
   xmlns:dc="http://purl.org/dc/elements/1.1/"
   xmlns:cc="http://creativecommons.org/ns#"
   xmlns:rdf="http://www.w3.org/1999/02/22-rdf-syntax-ns#"
   xmlns:svg="http://www.w3.org/2000/svg"
   xmlns="http://www.w3.org/2000/svg"
   version="1.1"
   width="100%"
   height="100%"
   viewBox="0 -256 1792 1792"
   id="svg3025">
  <metadata
     id="metadata3035">
    <rdf:RDF>
      <cc:Work
         rdf:about="">
        <dc:format>image/svg+xml</dc:format>
        <dc:type
           rdf:resource="http://purl.org/dc/dcmitype/StillImage" />
        <dc:title></dc:title>
      </cc:Work>
    </rdf:RDF>
  </metadata>
  <defs
     id="defs3033" />
  <g
     transform="matrix(1,0,0,-1,121.49153,1285.4237)"
     id="g3027">
    <path
       d="m 776.6875,133.4375 c -18.28516,0.5651 -29.66667,9.91667 -34.1875,28 -8.66667,33.33333 -18.33333,95.33333 -29,186 -31.33333,10 -61.66667,22.66667 -91,38 l -138,-107 c -8.66667,-6.66667 -17.33333,-10 -26,-10 -14.66667,0 -46.16667,23.83333 -94.5,71.5 -48.33333,47.66667 -81.16667,83.5 -98.5,107.5 -6,8.66667 -9,16.33333 -9,23 0,8 3.33333,16 10,24 44.66667,54 80.33333,100 107,138 -16.66667,30.66667 -29.66667,61.33333 -39,92 l -186,28 c -7.33333,1.33333 -13.66667,5.66667 -19,13 -5.33333,7.33333 -8,15 -8,23 l 0,222 c 0,8.6667 2.66667,16.5 8,23.5 5.33333,7 12.33333,11.1667 21,12.5 l 183,27 c 9.33333,32.6667 23,65.6667 41,99 -12,16.6667 -30,40.1667 -54,70.5 -24,30.3333 -41,52.5 -51,66.5 -5.33333,7.3333 -8,15 -8,23 0,8.6667 2.33333,16.3333 7,23 26,36 81,92 165,168 7.33333,7.3333 15.66667,11 25,11 10,0 18.33333,-3 25,-9 l 141,-107 c 27.33333,14 57.33333,26.3333 90,37 l 28,184 c 0.66667,8.6667 4.5,15.8333 11.5,21.5 7,5.6667 15.16667,8.5 24.5,8.5 l 222,0 c 19.3333,0 31.3333,-9.3333 36,-28 8.6667,-33.3333 18.3333,-95.3333 29,-186 31.3333,-10 61.6667,-22.6667 91,-38 l 138,108 c 9.3333,6 18,9 26,9 14.6667,0 46,-23.6667 94,-71 48,-47.3333 81,-83.3333 99,-108 6,-6.6667 9,-14.3333 9,-23 0,-8.6667 -3.3333,-17 -10,-25 -48,-58.6667 -83.6667,-104.6667 -107,-138 13.3333,-24.6667 26.3333,-55 39,-91 l 185,-28 c 8,-1.3333 14.6667,-5.6667 20,-13 5.3333,-7.3333 8,-15 8,-23 l 0,-222 c 0,-8.66667 -2.6667,-16.5 -8,-23.5 -5.3333,-7 -12.3333,-11.16667 -21,-12.5 l -183,-28 c -10,-32 -23.6667,-64.66667 -41,-98 12,-16.66667 30,-40.16667 54,-70.5 24,-30.33333 41,-52.5 51,-66.5 5.3333,-7.33333 8,-15 8,-23 0,-9.33333 -2.3333,-16.66667 -7,-22 -24,-34 -79,-90.66667 -165,-170 -8,-6.66667 -16.3333,-10 -25,-10 -10,0 -18,3 -24,9 l -142,107 c -27.3333,-14 -57.3333,-26.33333 -90,-37 l -28,-184 c -0.6667,-8.66667 -4.5,-15.83333 -11.5,-21.5 -7,-5.66667 -15.1667,-8.5 -24.5,-8.5 l -222,0 c -0.60417,0 -1.22266,-0.0182 -1.8125,0 z m 115.25,432.15625 c 185.3336,0 335.5937,150.22893 335.5937,335.5625 0,185.33355 -150.2601,335.59375 -335.5937,335.59375 -185.33357,0 -335.5625,-150.2602 -335.5625,-335.59375 0,-185.33357 150.22893,-335.5625 335.5625,-335.5625 z"
       transform="matrix(1,0,0,-1,-121.49153,1541.4237)"
       id="path3029"
       style="fill:currentColor" />
  </g>
</svg>
