<?xml version="1.0" encoding="UTF-8" standalone="no"?>
<!-- Generator: Adobe Illustrator 14.0.0, SVG Export Plug-In . SVG Version: 6.00 Build 43363)  -->

<svg
   xmlns:dc="http://purl.org/dc/elements/1.1/"
   xmlns:cc="http://creativecommons.org/ns#"
   xmlns:rdf="http://www.w3.org/1999/02/22-rdf-syntax-ns#"
   xmlns:svg="http://www.w3.org/2000/svg"
   xmlns="http://www.w3.org/2000/svg"
   xmlns:sodipodi="http://sodipodi.sourceforge.net/DTD/sodipodi-0.dtd"
   xmlns:inkscape="http://www.inkscape.org/namespaces/inkscape"
   version="1.1"
   id="svg3873"
   sodipodi:docname="settings.svg"
   inkscape:version="0.48.2 r9819"
   x="0px"
   y="0px"
   width="64"
   height="42"
   viewBox="-7 0 64 42"
   enable-background="new -7 0 64 50"
   xml:space="preserve"><metadata
   id="metadata3626"><rdf:RDF><cc:Work
       rdf:about=""><dc:format>image/svg+xml</dc:format><dc:type
         rdf:resource="http://purl.org/dc/dcmitype/StillImage" /></cc:Work></rdf:RDF></metadata><defs
   id="defs3624" />
<sodipodi:namedview
   id="base"
   inkscape:pageopacity="0.22352941"
   bordercolor="#666666"
   fit-margin-left="0"
   fit-margin-top="0"
   borderopacity="1.0"
   inkscape:cy="21.906785"
   inkscape:window-y="17"
   inkscape:window-height="852"
   inkscape:pageshadow="2"
   inkscape:document-units="px"
   pagecolor="#ff62ff"
   fit-margin-bottom="0"
   inkscape:current-layer="layer1"
   fit-margin-right="0"
   showgrid="true"
   inkscape:window-width="1440"
   inkscape:window-x="370"
   inkscape:cx="44.339458"
   inkscape:zoom="11.313709"
   inkscape:window-maximized="0"
   inkscape:snap-global="false">
	<inkscape:grid
   visible="true"
   enabled="true"
   id="grid4685"
   type="xygrid"
   empspacing="5"
   snapvisiblegridlinesonly="true">
		</inkscape:grid>
</sodipodi:namedview>
<g
   id="layer1"
   transform="translate(-93.916536,-93.58403)"
   inkscape:groupmode="layer"
   inkscape:label="Layer 1">
	<path
   id="path3715"
   inkscape:connector-curvature="0"
   d="m 116.683,118.58303 c 0,-1.606 1.189,-2.925 2.734,-3.151 -0.212,-0.715 -0.496,-1.4 -0.845,-2.043 -1.252,0.93 -3.027,0.84 -4.161,-0.297 -1.14,-1.137 -1.228,-2.91 -0.295,-4.164 -0.646,-0.348 -1.331,-0.631 -2.048,-0.844 -0.227,1.543 -1.543,2.73 -3.149,2.73 -1.608,0 -2.925,-1.188 -3.153,-2.73 -0.714,0.213 -1.399,0.496 -2.046,0.844 0.934,1.254 0.843,3.027 -0.293,4.164 -1.137,1.137 -2.91,1.227 -4.165,0.293 -0.349,0.646 -0.631,1.33 -0.844,2.047 1.543,0.227 2.732,1.545 2.732,3.151 0,1.61 -1.188,2.926 -2.732,3.153 0.213,0.715 0.495,1.4 0.844,2.049 1.254,-0.934 3.027,-0.844 4.165,0.291 1.136,1.137 1.225,2.91 0.293,4.164 0.647,0.35 1.332,0.629 2.046,0.844 0.229,-1.541 1.545,-2.732 3.153,-2.732 1.606,0 2.924,1.191 3.149,2.732 0.715,-0.215 1.402,-0.494 2.048,-0.844 -0.933,-1.254 -0.845,-3.027 0.295,-4.164 1.136,-1.135 2.909,-1.225 4.161,-0.291 0.349,-0.65 0.633,-1.332 0.845,-2.049 -1.545,-0.227 -2.734,-1.544 -2.734,-3.153 z m -7.764,4.57 c -2.524,0 -4.569,-2.047 -4.569,-4.569 0,-2.524 2.045,-4.571 4.569,-4.571 2.521,0 4.568,2.047 4.568,4.571 0,2.524 -2.047,4.569 -4.568,4.569 z"
   style="fill:none;stroke:#ffffff" />
</g>
</svg>