<?xml version="1.0" encoding="UTF-8" standalone="no"?>
<!-- Created with Inkscape (http://www.inkscape.org/) -->

<svg
   xmlns:dc="http://purl.org/dc/elements/1.1/"
   xmlns:cc="http://creativecommons.org/ns#"
   xmlns:rdf="http://www.w3.org/1999/02/22-rdf-syntax-ns#"
   xmlns:svg="http://www.w3.org/2000/svg"
   xmlns="http://www.w3.org/2000/svg"
   xmlns:sodipodi="http://sodipodi.sourceforge.net/DTD/sodipodi-0.dtd"
   xmlns:inkscape="http://www.inkscape.org/namespaces/inkscape"
   width="25"
   height="25"
   id="svg3873"
   version="1.1"
   inkscape:version="0.48.2 r9819"
   sodipodi:docname="settings.svg">
  <defs
     id="defs3875" />
  <sodipodi:namedview
     id="base"
     pagecolor="#ff62ff"
     bordercolor="#666666"
     borderopacity="1.0"
     inkscape:pageopacity="0.22352941"
     inkscape:pageshadow="2"
     inkscape:zoom="22.627417"
     inkscape:cx="8.9841192"
     inkscape:cy="11.300183"
     inkscape:document-units="px"
     inkscape:current-layer="layer1"
     showgrid="true"
     fit-margin-top="0"
     fit-margin-left="0"
     fit-margin-right="0"
     fit-margin-bottom="0"
     inkscape:window-width="1440"
     inkscape:window-height="852"
     inkscape:window-x="7"
     inkscape:window-y="7"
     inkscape:window-maximized="0"
     inkscape:snap-global="false">
    <inkscape:grid
       type="xygrid"
       id="grid4685"
       empspacing="5"
       visible="true"
       enabled="true"
       snapvisiblegridlinesonly="true" />
  </sodipodi:namedview>
  <metadata
     id="metadata3878">
    <rdf:RDF>
      <cc:Work
         rdf:about="">
        <dc:format>image/svg+xml</dc:format>
        <dc:type
           rdf:resource="http://purl.org/dc/dcmitype/StillImage" />
        <dc:title></dc:title>
      </cc:Work>
    </rdf:RDF>
  </metadata>
  <g
     inkscape:label="Layer 1"
     inkscape:groupmode="layer"
     id="layer1"
     transform="translate(-93.916536,-110.58403)">
    <path
       style="fill:#ffffff;stroke:#ffffff;stroke-width:1;stroke-miterlimit:4;stroke-dasharray:none"
       inkscape:connector-curvature="0"
       d="m 113.07418,122.13027 c 0,-1.60581 1.18964,-2.92383 2.73431,-3.15057 -0.21302,-0.71507 -0.49579,-1.39899 -0.84584,-2.04307 -1.25192,0.9306 -3.02704,0.8409 -4.16063,-0.29524 -1.13981,-1.13864 -1.22825,-2.91138 -0.29522,-4.16462 -0.64528,-0.34758 -1.33041,-0.63161 -2.04793,-0.84464 -0.22673,1.54352 -1.54218,2.73074 -3.14913,2.73074 -1.6082,0 -2.9249,-1.18722 -3.15286,-2.73074 -0.71379,0.21303 -1.39893,0.49583 -2.0467,0.8434 0.93428,1.25448 0.84335,3.02722 -0.292738,4.16586 -1.137324,1.13614 -2.909958,1.22584 -4.164377,0.29151 -0.348796,0.64781 -0.63157,1.33048 -0.844584,2.0468 1.543421,0.22799 2.731822,1.54476 2.731822,3.15057 0,1.60954 -1.188401,2.92756 -2.731822,3.15305 0.213014,0.71507 0.494542,1.40149 0.844584,2.04805 1.254419,-0.93184 3.027053,-0.84339 4.164377,0.29151 1.136088,1.1374 1.224538,2.91138 0.292738,4.16462 0.64777,0.34881 1.33166,0.62912 2.0467,0.84464 0.22921,-1.54227 1.54466,-2.73323 3.15286,-2.73323 1.60695,0 2.92365,1.19096 3.14913,2.73323 0.71502,-0.21552 1.40265,-0.49458 2.04793,-0.84464 -0.93303,-1.25324 -0.84459,-3.02722 0.29522,-4.16337 1.13608,-1.13615 2.90871,-1.2246 4.16063,-0.29276 0.3488,-0.64904 0.63282,-1.33173 0.84584,-2.04805 -1.54467,-0.22549 -2.73431,-1.54351 -2.73431,-3.15305 z m -7.76319,4.57198 c -2.52379,0 -4.56923,-2.0468 -4.56923,-4.56825 0,-2.52393 2.04544,-4.57198 4.56923,-4.57198 2.52129,0 4.56797,2.04805 4.56797,4.57198 0,2.5227 -2.04668,4.56825 -4.56797,4.56825 z"
       id="path3715" />
  </g>
</svg>
