<?xml version="1.0" encoding="UTF-8" standalone="no"?>
<!-- Created with Inkscape (http://www.inkscape.org/) -->

<svg
   xmlns:dc="http://purl.org/dc/elements/1.1/"
   xmlns:cc="http://creativecommons.org/ns#"
   xmlns:rdf="http://www.w3.org/1999/02/22-rdf-syntax-ns#"
   xmlns:svg="http://www.w3.org/2000/svg"
   xmlns="http://www.w3.org/2000/svg"
   xmlns:sodipodi="http://sodipodi.sourceforge.net/DTD/sodipodi-0.dtd"
   xmlns:inkscape="http://www.inkscape.org/namespaces/inkscape"
   width="20"
   height="25"
   id="svg3873"
   version="1.1"
   inkscape:version="0.48.2 r9819"
   sodipodi:docname="settings.svg">
  <defs
     id="defs3875" />
  <sodipodi:namedview
     id="base"
     pagecolor="#ff62ff"
     bordercolor="#666666"
     borderopacity="1.0"
     inkscape:pageopacity="0.22352941"
     inkscape:pageshadow="2"
     inkscape:zoom="22.627417"
     inkscape:cx="7.9676532"
     inkscape:cy="11.300183"
     inkscape:document-units="px"
     inkscape:current-layer="layer1"
     showgrid="true"
     fit-margin-top="0"
     fit-margin-left="0"
     fit-margin-right="0"
     fit-margin-bottom="0"
     inkscape:window-width="1440"
     inkscape:window-height="852"
     inkscape:window-x="229"
     inkscape:window-y="0"
     inkscape:window-maximized="0"
     inkscape:snap-global="false">
    <inkscape:grid
       type="xygrid"
       id="grid4685"
       empspacing="5"
       visible="true"
       enabled="true"
       snapvisiblegridlinesonly="true" />
  </sodipodi:namedview>
  <metadata
     id="metadata3878">
    <rdf:RDF>
      <cc:Work
         rdf:about="">
        <dc:format>image/svg+xml</dc:format>
        <dc:type
           rdf:resource="http://purl.org/dc/dcmitype/StillImage" />
        <dc:title></dc:title>
      </cc:Work>
    </rdf:RDF>
  </metadata>
  <g
     inkscape:label="Layer 1"
     inkscape:groupmode="layer"
     id="layer1"
     transform="translate(-93.916536,-110.58403)">
    <path
       style="fill:none;stroke:#ffffff;stroke-width:0.5"
       inkscape:connector-curvature="0"
       d="m 109.02954,121.90403 c 0,-1.289 0.955,-2.347 2.195,-2.529 -0.171,-0.574 -0.398,-1.123 -0.679,-1.64 -1.005,0.747 -2.43,0.675 -3.34,-0.237 -0.915,-0.914 -0.986,-2.337 -0.237,-3.343 -0.518,-0.279 -1.068,-0.507 -1.644,-0.678 -0.182,1.239 -1.238,2.192 -2.528,2.192 -1.291,0 -2.348,-0.953 -2.531,-2.192 -0.573,0.171 -1.123,0.398 -1.643,0.677 0.75,1.007 0.677,2.43 -0.235,3.344 -0.913,0.912 -2.336004,0.984 -3.343004,0.234 -0.28,0.52 -0.507,1.068 -0.678,1.643 1.239,0.183 2.193004,1.24 2.193004,2.529 0,1.292 -0.954004,2.35 -2.193004,2.531 0.171,0.574 0.397,1.125 0.678,1.644 1.007,-0.748 2.430004,-0.677 3.343004,0.234 0.912,0.913 0.983,2.337 0.235,3.343 0.52,0.28 1.069,0.505 1.643,0.678 0.184,-1.238 1.24,-2.194 2.531,-2.194 1.29,0 2.347,0.956 2.528,2.194 0.574,-0.173 1.126,-0.397 1.644,-0.678 -0.749,-1.006 -0.678,-2.43 0.237,-3.342 0.912,-0.912 2.335,-0.983 3.34,-0.235 0.28,-0.521 0.508,-1.069 0.679,-1.644 -1.24,-0.181 -2.195,-1.239 -2.195,-2.531 z m -6.232,3.67 c -2.026,0 -3.668,-1.643 -3.668,-3.667 0,-2.026 1.642,-3.67 3.668,-3.67 2.024,0 3.667,1.644 3.667,3.67 0,2.025 -1.643,3.667 -3.667,3.667 z"
       id="path3715" />
  </g>
</svg>
